<svg xmlns="http://www.w3.org/2000/svg" fill="none" viewBox="0 0 24 24" id="Nodejs-Icon--Streamline-Svg-Logos" height="24" width="24">
  <desc>
    Nodejs Icon Streamline Icon: https://streamlinehq.com
  </desc>
  <path fill="#539e43" d="M12.00005 23.75c-0.32385 0 -0.6261 -0.08635 -0.906775 -0.237475l-2.871375 -1.705575c-0.431775 -0.237475 -0.2159 -0.323825 -0.08635 -0.367 0.5829 -0.194325 0.69085 -0.2375 1.29535 -0.582925 0.064775 -0.043175 0.151125 -0.021575 0.2159 0.0216l2.202125 1.31695c0.08635 0.043175 0.1943 0.043175 0.25905 0l8.61415 -4.98715c0.086375 -0.043175 0.12955 -0.129525 0.12955 -0.237475V7.01825c0 -0.10795 -0.043175 -0.1943 -0.12955 -0.237475L12.107975 1.8152275c-0.08635 -0.04318 -0.1943 -0.04318 -0.25905 0L3.234775 6.780775c-0.086375 0.043175 -0.12955 0.151125 -0.12955 0.237475v9.9527c0 0.08635 0.043175 0.1943 0.12955 0.237475l2.353225 1.360125c1.273775 0.647675 2.072575 -0.10795 2.072575 -0.863575V7.881825c0 -0.129525 0.10795 -0.259075 0.259075 -0.259075h1.10105c0.12955 0 0.259075 0.10795 0.259075 0.259075v9.82315c0 1.705575 -0.928325 2.698675 -2.547525 2.698675 -0.496575 0 -0.885175 0 -1.986225 -0.539725l-2.266885 -1.295375c-0.5613225 -0.323825 -0.9067525 -0.928325 -0.9067525 -1.576025V7.03985c0 -0.647675 0.34543 -1.252175 0.9067525 -1.576025L11.093275 0.4766875c0.53975 -0.30225025 1.273775 -0.30225025 1.813525 0L21.52095 5.463825c0.561325 0.32385 0.90675 0.92835 0.90675 1.576025v9.952675c0 0.6477 -0.345425 1.2522 -0.90675 1.576025L12.9068 23.5557c-0.280675 0.129525 -0.6045 0.1943 -0.90675 0.1943Zm2.655475 -6.843825c-3.778125 0 -4.55535 -1.72715 -4.55535 -3.195225 0 -0.129525 0.10795 -0.259075 0.259075 -0.259075h1.12265c0.129525 0 0.237475 0.086375 0.237475 0.2159 0.172725 1.144225 0.669275 1.70555 2.95775 1.70555 1.8135 0 2.590725 -0.4102 2.590725 -1.3817 0 -0.561325 -0.2159 -0.971525 -3.0441 -1.2522 -2.35325 -0.237475 -3.821325 -0.755625 -3.821325 -2.6339 0 -1.748725 1.468075 -2.785025 3.929275 -2.785025 2.763425 0 4.12355 0.94995 4.296275 3.022525 0 0.06475 -0.0216 0.129525 -0.064775 0.1943 -0.043175 0.043175 -0.10795 0.08635 -0.172725 0.08635h-1.122625c-0.10795 0 -0.2159 -0.08635 -0.2375 -0.1943 -0.259075 -1.187425 -0.928325 -1.576025 -2.69865 -1.576025 -1.986225 0 -2.223725 0.69085 -2.223725 1.209 0 0.6261 0.280675 0.8204 2.95775 1.165825 2.6555 0.345425 3.907675 0.842 3.907675 2.698675 -0.0216 1.89985 -1.576025 2.979325 -4.317875 2.979325Z" stroke-width="0.25"></path>
</svg>