<svg xmlns="http://www.w3.org/2000/svg" fill="none" viewBox="0 0 96 96" id="Php--Streamline-Svg-Logos" height="24" width="24">
  <desc>
    Php Streamline Icon: https://streamlinehq.com
  </desc>
  <path fill="url(#a)" d="M48 72.7115c25.9574 0 47-11.0638 47-24.7117S73.9574 23.2881 48 23.2881 1 34.3519 1 47.9998s21.0426 24.7117 47 24.7117Z"></path>
  <path fill="#6181b6" d="M48 70.8756c24.9434 0 45.1641-10.2418 45.1641-22.8758C93.1641 35.3659 72.9434 25.124 48 25.124c-24.9434 0-45.16406 10.2419-45.16406 22.8758 0 12.634 20.22066 22.8758 45.16406 22.8758Z"></path>
  <path fill="#ffffff" d="m57.1425 55.4169 2.2399-11.5297c.514-2.607.0734-4.5531-1.2485-5.7648-1.2851-1.175-3.4882-1.7625-6.7195-1.7625h-3.8922l1.1016-5.7282c.0367-.2203 0-.4406-.1469-.6242-.1469-.1836-.3305-.257-.5508-.257h-5.3609c-.3672 0-.6609.257-.7344.5875l-2.3867 12.2273c-.2203-1.3953-.7344-2.5703-1.6156-3.525-1.5789-1.7992-4.0391-2.7172-7.3805-2.7172H20.13c-.3671 0-.6609.2571-.7343.5875l-4.8102 24.8219c-.0367.2203 0 .4406.1469.6242.1469.1836.3305.2571.5508.2571h5.3976c.3672 0 .661-.2571.7344-.5875l1.175-5.9852h4.0023c2.093 0 3.8922-.2203 5.2508-.6609 1.4321-.4774 2.7172-1.2485 3.8555-2.3133.918-.8445 1.6891-1.7992 2.2766-2.8273l-.9547 4.957c-.0368.2203 0 .4406.1468.6242.1469.1836.3305.257.5508.257h5.361c.3671 0 .6609-.257.7343-.5875l2.6438-13.5859h3.6719c1.5789 0 2.0195.2937 2.1664.4406.1101.1102.3304.5508.0734 1.9094l-2.1297 10.9789c-.0367.2203 0 .4406.1469.6242.1469.1836.3305.2571.5508.2571h5.5078c.3305-.1102.6242-.3672.6976-.6977ZM32.3207 45.87c-.3305 1.7258-.9547 2.9742-1.8727 3.6719-.918.6977-2.4234 1.0648-4.4062 1.0648H23.655l1.7258-8.8859h3.0844c2.2766 0 3.1945.4773 3.5617.8813.4774.5875.5875 1.7257.2938 3.2679Z"></path>
  <path fill="#ffffff" d="M80.0557 39.0404c-1.5789-1.7992-4.039-2.7172-7.3804-2.7172H62.2838c-.3671 0-.6609.2571-.7343.5875l-4.8102 24.7852c-.0367.2203 0 .4406.1469.6242.1469.1836.3305.257.5508.257h5.3976c.3672 0 .661-.257.7344-.5875l1.175-5.9851h4.0023c2.093 0 3.8922-.2203 5.2508-.6609 1.4321-.4774 2.7172-1.2485 3.8555-2.3133.9547-.8813 1.7625-1.8727 2.35-2.9375.5875-1.0649 1.0281-2.2399 1.2852-3.525.6242-3.1946.1468-5.6914-1.4321-7.5274Zm-5.6179 6.8297c-.3305 1.7258-.9547 2.9742-1.8727 3.6719-.918.6976-2.4234 1.0648-4.4063 1.0648h-2.3867l1.7258-8.8859h3.0844c2.2765 0 3.1945.4773 3.5617.8812.5141.5875.6242 1.7258.2938 3.268Z"></path>
  <path fill="#000004" d="M28.4656 40.9865c2.0563 0 3.4149.3672 4.1125 1.1383.6977.7711.8446 2.0563.4774 3.8922-.3672 1.9094-1.1016 3.3047-2.1664 4.1125-1.0649.8078-2.6805 1.2117-4.8469 1.2117h-3.268l2.0196-10.3547h3.6718ZM15.3203 61.8428h5.3977l1.2851-6.5727h4.6266c2.0562 0 3.7086-.2203 5.0305-.6609 1.3218-.4406 2.4968-1.1383 3.5984-2.1664.918-.8446 1.6523-1.7625 2.2031-2.7539.5508-.9914.9547-2.093 1.175-3.3047.5875-2.9375.1469-5.2141-1.2851-6.8664-1.4321-1.6524-3.7086-2.4602-6.8297-2.4602H20.1305l-4.8102 24.7852Z"></path>
  <path fill="#000004" d="M42.6022 30.4849h5.3609l-1.2852 6.5726h4.7735c3.0109 0 5.0672.5141 6.2054 1.5789 1.1383 1.0649 1.4688 2.7539 1.0282 5.1039L56.4451 55.27h-5.4344l2.1297-10.9789c.2571-1.2484.1469-2.093-.257-2.5336-.4039-.4406-1.3219-.6976-2.6805-.6976h-4.2961L43.1529 55.27H37.792l4.8102-24.7851Z"></path>
  <path fill="#000004" d="M70.5818 40.9865c2.0563 0 3.4149.3672 4.1125 1.1383.6977.7711.8446 2.0563.4774 3.8922-.3672 1.9094-1.1016 3.3047-2.1664 4.1125-1.0649.8078-2.6805 1.2117-4.8469 1.2117h-3.268L66.91 40.9865h3.6718ZM57.4365 61.8428h5.3977l1.2851-6.5727h4.6266c2.0562 0 3.7086-.2203 5.0305-.6609 1.3218-.4406 2.4968-1.1383 3.5984-2.1664.918-.8446 1.6523-1.7625 2.2031-2.7539.5508-.9914.9547-2.093 1.175-3.3047.5875-2.9375.1469-5.2141-1.2851-6.8664-1.4321-1.6524-3.7086-2.4602-6.8297-2.4602H62.2467l-4.8102 24.7852Z"></path>
  <defs>
    <radialGradient id="a" cx="0" cy="0" r="1" gradientTransform="translate(29.219 31.979) scale(61.7224)" gradientUnits="userSpaceOnUse">
      <stop stop-color="#fff"></stop>
      <stop offset=".5" stop-color="#4c6b97"></stop>
      <stop offset="1" stop-color="#231f20"></stop>
    </radialGradient>
  </defs>
</svg>