<svg xmlns="http://www.w3.org/2000/svg" fill="none" viewBox="0 0 24 24" id="Svelte-Icon--Streamline-Svg-Logos" height="24" width="24">
  <desc>
    Svelte Icon Streamline Icon: https://streamlinehq.com
  </desc>
  <path fill="#ff3e00" d="M20.5306 3.359325C18.34845 0.23610675 14.038725 -0.689625 10.922575 1.2957675L5.44985 4.783775c-1.494875 0.940475 -2.52455 2.46705 -2.836475 4.2054 -0.261065 1.448175 -0.0316 2.942025 0.652025 4.245075 -0.46845 0.710625 -0.787945 1.508825 -0.9391925 2.346425 -0.3149525 1.771725 0.0970375 3.59565 1.1429675 5.059975 2.1826 3.1235 6.49235 4.04885 9.608 2.06355l5.472725 -3.488c1.495 -0.94035 2.5247 -2.467 2.8365 -4.2054 0.261025 -1.44815 0.031725 -2.941975 -0.651575 -4.245175 0.468325 -0.7106 0.7877 -1.5088 0.9388 -2.346325 0.315175 -1.771725 -0.09685 -3.595725 -1.14295 -5.059975" stroke-width="0.25"></path>
  <path fill="#ffffff" d="M10.3875 20.9377c-1.76455 0.4588 -3.627975 -0.2319 -4.667175 -1.73 -0.6293 -0.8808 -0.8772 -1.978025 -0.687725 -3.043825 0.031775 -0.173225 0.075475 -0.344025 0.130825 -0.511225l0.1031 -0.31435 0.280475 0.206c0.6477 0.475925 1.371925 0.837775 2.141425 1.06995l0.203475 0.061725 -0.01875 0.20305c-0.02485 0.288875 0.05335 0.577225 0.2208 0.81395 0.312725 0.45125 0.873775 0.6595 1.4052 0.521575 0.118975 -0.0318 0.232375 -0.08165 0.33625 -0.1478l5.474475 -3.488625c0.27085 -0.17055 0.4575 -0.447125 0.51435 -0.7621 0.05675 -0.321225 -0.01795 -0.6518 -0.207275 -0.917425 -0.312925 -0.45135 -0.8741 -0.659675 -1.40575 -0.52185 -0.118825 0.0318 -0.23205 0.0816 -0.3358 0.147675l-2.089025 1.331675c-0.3435 0.218425 -0.718375 0.383025 -1.11165 0.488175 -1.76455 0.458775 -3.62795 -0.231925 -4.667125 -1.73 -0.629325 -0.8808 -0.877225 -1.978025 -0.6877 -3.043825 0.1876 -1.045625 0.80705 -1.96385 1.70635 -2.529375l5.473975 -3.488925c0.343675 -0.218775 0.718825 -0.3836 1.1124 -0.48875 1.764525 -0.458775 3.627925 0.231925 4.6671 1.729975 0.6293 0.880825 0.8772 1.978025 0.6877 3.04385 -0.0319 0.173175 -0.0756 0.343975 -0.1308 0.5112l-0.1031 0.314375 -0.280325 -0.2057c-0.647675 -0.4762 -1.37195 -0.8382 -2.1416 -1.0704l-0.20345 -0.06175 0.01875 -0.20305c0.02465 -0.288875 -0.05355 -0.57715 -0.2208 -0.81395 -0.31275 -0.45125 -0.8738 -0.659475 -1.405225 -0.52155 -0.118975 0.0318 -0.232375 0.08165 -0.33625 0.147775L8.69015 9.422975c-0.2708 0.1704 -0.45735 0.44695 -0.513925 0.761875 -0.0571 0.3212 0.01745 0.6519 0.20685 0.91755 0.31295 0.451325 0.874125 0.65965 1.40575 0.52185 0.11895 -0.031875 0.23235 -0.0817 0.33625 -0.147775l2.088725 -1.3312c0.343375 -0.2187 0.718225 -0.383475 1.111525 -0.48855 1.76455 -0.4588 3.62795 0.231925 4.667125 1.73 0.629325 0.8808 0.877225 1.978 0.687725 3.0438 -0.187725 1.0457 -0.807125 1.964 -1.70635 2.529775L11.4998 20.448925c-0.34365 0.218775 -0.7188 0.3836 -1.112375 0.488775" stroke-width="0.25"></path>
</svg>