<svg xmlns="http://www.w3.org/2000/svg" fill="none" viewBox="0 0 24 24" id="Symfony--Streamline-Svg-Logos" height="24" width="24">
  <desc>
    Symfony Streamline Icon: https://streamlinehq.com
  </desc>
  <path fill="#1a171b" d="M12 23.75c6.48935 0 11.75 -5.26065 11.75 -11.75S18.48935 0.25 12 0.25 0.25 5.51065 0.25 12s5.26065 11.75 11.75 11.75Z" stroke-width="0.25"></path>
  <path fill="#ffffff" d="M17.113575 4.591825c-1.192 0.041575 -2.2325 0.6985 -3.006925 1.6074 -0.857575 0.9964 -1.428075 2.178275 -1.83915 3.384725 -0.735375 -0.602675 -1.302625 -1.382875 -2.482325 -1.7231 -0.9118 -0.26175 -1.8695 -0.15365 -2.750225 0.50255 -0.4172 0.31165 -0.704625 0.782725 -0.8413 1.225625 -0.35395 1.150775 0.372025 2.175 0.70175 2.5427l0.7209 0.7726c0.1486 0.151475 0.506525 0.54665 0.33155 1.113175 -0.1891 0.61605 -0.9317 1.014825 -1.69345 0.779825 -0.340225 -0.10375 -0.829025 -0.357175 -0.719475 -0.714025 0.0452 -0.14605 0.149675 -0.25525 0.205725 -0.381425 0.051325 -0.10845 0.075925 -0.1898 0.091475 -0.237525 0.139175 -0.45445 -0.050975 -1.045575 -0.537625 -1.1956 -0.454075 -0.1392 -0.91865 -0.028925 -1.0987 0.555675 -0.204275 0.66415 0.113525 1.869525 1.816 2.394475 1.9946 0.6128 3.6819 -0.473275 3.92125 -1.889775 0.15075 -0.8872 -0.249825 -1.5463 -0.98375 -2.3941l-0.597975 -0.66125c-0.362275 -0.3619 -0.48665 -0.9787 -0.111725 -1.452675 0.31635 -0.39985 0.766825 -0.5705 1.504725 -0.36985 1.077025 0.2925 1.55715 1.0398 2.358325 1.642475 -0.330825 1.084975 -0.547025 2.173925 -0.7426 3.15045l-0.119325 0.728125c-0.572675 3.003675 -1.009775 4.653 -2.145725 5.599875 -0.22885 0.1627 -0.55605 0.406375 -1.049175 0.42335 -0.2585 0.007975 -0.342025 -0.1699 -0.34565 -0.247275 -0.006125 -0.1815 0.1468 -0.26465 0.2484 -0.34635 0.151825 -0.0828 0.3814 -0.220175 0.365875 -0.660175 -0.01665 -0.5199 -0.447225 -0.970725 -1.0698 -0.950125 -0.466375 0.0159 -1.177175 0.454825 -1.150425 1.25815 0.02785 0.829725 0.801175 1.451575 1.96715 1.412175 0.623275 -0.021325 2.0152 -0.275125 3.386875 -1.905675 1.59655 -1.86915 2.04305 -4.012 2.378925 -5.58035l0.374925 -2.070525c0.20825 0.02495 0.43095 0.041575 0.673175 0.047375 1.988475 0.041925 2.98305 -0.9881 2.997875 -1.7372 0.009775 -0.453375 -0.29755 -0.8995 -0.727775 -0.8894 -0.308025 0.0087 -0.694875 0.213675 -0.7878 0.639575 -0.090725 0.417925 0.6327 0.795025 0.06725 1.16125 -0.40165 0.25995 -1.12185 0.44325 -2.13595 0.2943l0.184375 -1.019175c0.37635 -1.932775 0.840575 -4.31025 2.601625 -4.3681 0.12835 -0.006525 0.597975 0.005775 0.608825 0.31635 0.00325 0.10375 -0.0224 0.13015 -0.143875 0.367675 -0.12365 0.1851 -0.1703 0.342725 -0.1645 0.523875 0.016975 0.4935 0.39225 0.8178 0.934925 0.798275 0.7267 -0.0235 0.935675 -0.731025 0.923725 -1.094375 -0.029275 -0.8536 -0.92915 -1.393025 -2.1204 -1.353975Z" stroke-width="0.25"></path>
</svg>